# xmcd
#
# Track frame offsets: 
#        150
#        19317
#        37189
#        53539
#        69840
#        86419
#        103685
#        124289
#        146633
#        167669
#        181980
#        195753
#        211201
#        227385
#        244544
#        263493
#        278643
#        293714
#        304785
#        320789
#
# Disc length: 4563 seconds
#
# Revision: 0
# Processed by: cddbd v1.5.1PL0 Copyright (c) Steve Scherf et al.
# Submitted via: ExactAudioCopy v0.95a3
#
DISCID=0f11d114
DTITLE=Various Artist - Полный Вперёд!!!
DYEAR=2000
DGENRE=Pop
TTITLE0=Русский Размер - Я (Video Mix)
TTITLE1=Фанки - Только Тебе (Remix)
TTITLE2=DVD - Я Слышу Небо
TTITLE3=Горячие Головы - Не Колышешь (Video Mix)
TTITLE4=Полярная Звезда - Жду Тебя
TTITLE5=Demo - Выше Неба (Video Edit)
TTITLE6=Dj Valdaй - Моя Киска
TTITLE7=Lemon - Если Он Позвал (Special Mix)
TTITLE8=Пульс - Ночь Пришла
TTITLE9=140 Ударов В Минуту - Синие Глаза
TTITLE10=Наташа Королёва - Чуть-Чуть (Video Edit)
TTITLE11=Хали-Гали - Анюта (Radio Version)
TTITLE12=С. Кораблёва - К Тебе Приду
TTITLE13=Natasha - Спи Со Мной (Video Edit)
TTITLE14=Алла Дин - На Рассвете
TTITLE15=Бархат - Берегом Любви
TTITLE16=Ночной Патруль - Нам Хорошо
TTITLE17=Н. Романова - Там, За Дождём
TTITLE18=Карамель - Где Ты? (Видео Версия)
TTITLE19=Ночной Патруль - Вечером (Ремикс 2000)
EXTD=
EXTT0=
EXTT1=
EXTT2=
EXTT3=
EXTT4=
EXTT5=
EXTT6=
EXTT7=
EXTT8=
EXTT9=
EXTT10=
EXTT11=
EXTT12=
EXTT13=
EXTT14=
EXTT15=
EXTT16=
EXTT17=
EXTT18=
EXTT19=
PLAYORDER=
